# xmcd
#
# Track frame offsets:
#	150
#	19068
#	33496
#	46775
#	64287
#	78157
#	94591
#	112242
#	128705
#	145325
#	161263
#	180784
#	197810
#	216833
#	228933
#	247631
#	263847
#	276652
#	289713
#	309229
#	330581
#
# Disc length: 4631 seconds
#
# Revision: 0
# Processed by: cddbd v1.5.1PL0 Copyright (c) Steve Scherf et al.
# Submitted via: dBpowerAMP V4.0
#
DISCID=1e121515
DTITLE=Kenny Rogers - Greatest Hits
DYEAR=1900
DGENRE=Country
TTITLE0=Islands in the stream
TTITLE1=You needed me
TTITLE2=Together again
TTITLE3=We've got tonight
TTITLE4=All I ever need is you
TTITLE5=Lucille
TTITLE6=Lady
TTITLE7=You Decorated my life
TTITLE8=Don't fall in love with a dreamer
TTITLE9=The Gambler
TTITLE10=Coward of the county
TTITLE11=Desperardo
TTITLE12=She believes in me
TTITLE13=Blaze of glory
TTITLE14=You've lost that loving feeling
TTITLE15=Green Green Grass of home
TTITLE16=Ruby (don't take your love to town)
TTITLE17=You are so beautiful
TTITLE18=The long arm of the law
TTITLE19=Through the years
TTITLE20=Love lifted me
EXTD=\n
EXTT0=
EXTT1=
EXTT2=
EXTT3=
EXTT4=
EXTT5=
EXTT6=
EXTT7=
EXTT8=
EXTT9=
EXTT10=
EXTT11=
EXTT12=
EXTT13=
EXTT14=
EXTT15=
EXTT16=
EXTT17=
EXTT18=
EXTT19=
EXTT20=
PLAYORDER=
